<?xml version="1.0" encoding="UTF-8"?>
<!DOCTYPE svg PUBLIC "-//W3C//DTD SVG 1.1//EN" "http://www.w3.org/Graphics/SVG/1.1/DTD/svg11.dtd">
<svg xmlns="http://www.w3.org/2000/svg" xmlns:xlink="http://www.w3.org/1999/xlink" version="1.1" width="128px" height="120px" viewBox="-0.5 -0.5 128 120"><defs/><g><g data-cell-id="0"><g data-cell-id="1"><g data-cell-id="yuJQBWBxcV-j0SH0Kwvu-8"><g><ellipse cx="62" cy="60" rx="60" ry="60" fill="#e1e6db" stroke="none" pointer-events="all"/></g></g><g data-cell-id="yuJQBWBxcV-j0SH0Kwvu-4"><g><path d="M 52 67.61 C 52 48.43 68.07 32.88 87.9 32.88 C 107.72 32.88 123.8 48.43 123.8 67.61 L 130.25 67.61 L 114.12 87.13 L 97.98 67.61 L 104.44 67.61 C 104.44 58.77 97.03 51.61 87.9 51.61 C 78.76 51.61 71.36 58.77 71.36 67.61 Z" fill="#669933" stroke="none" transform="rotate(75,91.13,60)" pointer-events="all"/></g></g><g data-cell-id="yuJQBWBxcV-j0SH0Kwvu-5"><g><path d="M 64.5 22.5 C 64.5 18.36 70.1 15 77 15 C 80.32 15 83.49 15.79 85.84 17.2 C 88.18 18.6 89.5 20.51 89.5 22.5 L 89.5 42.5 C 89.5 46.64 83.9 50 77 50 C 70.1 50 64.5 46.64 64.5 42.5 Z" fill="rgb(255, 255, 255)" stroke="#333333" stroke-width="6" stroke-miterlimit="10" pointer-events="all"/><path d="M 89.5 22.5 C 89.5 26.64 83.9 30 77 30 C 70.1 30 64.5 26.64 64.5 22.5" fill="none" stroke="#333333" stroke-width="6" stroke-miterlimit="10" pointer-events="all"/></g></g><g data-cell-id="yuJQBWBxcV-j0SH0Kwvu-11"><g><path d="M -3 67.61 C -3 48.43 13.07 32.88 32.9 32.88 C 52.72 32.88 68.8 48.43 68.8 67.61 L 75.25 67.61 L 59.12 87.13 L 42.98 67.61 L 49.44 67.61 C 49.44 58.77 42.03 51.61 32.9 51.61 C 23.76 51.61 16.36 58.77 16.36 67.61 Z" fill="#669933" stroke="none" transform="rotate(-105,36.13,60)" pointer-events="all"/></g></g><g data-cell-id="yuJQBWBxcV-j0SH0Kwvu-7"><g><path d="M 32 100 C 32 82 32 73 49.5 73 C 37.83 73 37.83 55 49.5 55 C 61.17 55 61.17 73 49.5 73 C 67 73 67 82 67 100 Z" fill="rgb(255, 255, 255)" stroke="#333333" stroke-width="6" stroke-miterlimit="10" pointer-events="all"/></g></g></g></g></g></svg>